<svg width="40" height="40" viewBox="0 0 40 40" fill="none" xmlns="http://www.w3.org/2000/svg">
<rect width="40" height="40" rx="10" fill="#0077D7"/>
<path d="M13.6846 21.5105H11.2788V20.2473H13.6846C14.1035 20.2473 14.4421 20.1796 14.7002 20.0441C14.9583 19.9087 15.1466 19.7225 15.2651 19.4855C15.3879 19.2443 15.4492 18.9693 15.4492 18.6604C15.4492 18.3684 15.3879 18.0954 15.2651 17.8415C15.1466 17.5834 14.9583 17.376 14.7002 17.2194C14.4421 17.0629 14.1035 16.9846 13.6846 16.9846H11.7676V24.9572H10.1743V15.715H13.6846C14.3997 15.715 15.007 15.842 15.5063 16.0959C16.0099 16.3456 16.3929 16.6926 16.6553 17.1369C16.9176 17.577 17.0488 18.0806 17.0488 18.6477C17.0488 19.2443 16.9176 19.7564 16.6553 20.1838C16.3929 20.6112 16.0099 20.9392 15.5063 21.1677C15.007 21.3962 14.3997 21.5105 13.6846 21.5105ZM21.1621 24.9572H19.188L19.2007 23.694H21.1621C21.7334 23.694 22.2116 23.5692 22.5967 23.3195C22.986 23.0699 23.278 22.7123 23.4727 22.2468C23.6715 21.7813 23.771 21.2269 23.771 20.5837V20.0822C23.771 19.5829 23.7139 19.1407 23.5996 18.7556C23.4896 18.3705 23.3245 18.0467 23.1045 17.7844C22.8887 17.522 22.6221 17.3231 22.3047 17.1877C21.9915 17.0523 21.6297 16.9846 21.2192 16.9846H19.1499V15.715H21.2192C21.8328 15.715 22.3936 15.8187 22.9014 16.0261C23.4092 16.2292 23.8472 16.5233 24.2153 16.9084C24.5877 17.2935 24.8734 17.7548 25.0723 18.2922C25.2712 18.8296 25.3706 19.4305 25.3706 20.0949V20.5837C25.3706 21.2481 25.2712 21.849 25.0723 22.3864C24.8734 22.9239 24.5877 23.3851 24.2153 23.7702C23.8429 24.1511 23.3986 24.4452 22.8823 24.6525C22.3703 24.8557 21.7969 24.9572 21.1621 24.9572ZM20.0703 15.715V24.9572H18.4771V15.715H20.0703ZM28.5635 15.715V24.9572H26.9702V15.715H28.5635ZM32.334 19.7585V21.0217H28.1572V19.7585H32.334ZM32.8608 15.715V16.9846H28.1572V15.715H32.8608Z" fill="white"/>
<line x1="1.5449" y1="17.2936" x2="17.8084" y2="1.03015" stroke="white" stroke-width="0.5"/>
<line x1="0.823223" y1="13.5511" x2="13.5511" y2="0.823223" stroke="white" stroke-width="0.5"/>
<line x1="1.05809" y1="9.04391" x2="8.83626" y2="1.26574" stroke="white" stroke-width="0.5"/>
</svg>
