<svg width="156" height="46" viewBox="0 0 156 46" fill="none" xmlns="http://www.w3.org/2000/svg">
<rect y="3" width="40" height="40" rx="10" fill="#AFDBF5"/>
<path d="M45.0114 30V18.3636H49.6023C50.4848 18.3636 51.2367 18.5322 51.858 18.8693C52.4792 19.2027 52.9527 19.6667 53.2784 20.2614C53.608 20.8523 53.7727 21.5341 53.7727 22.3068C53.7727 23.0795 53.6061 23.7614 53.2727 24.3523C52.9394 24.9432 52.4564 25.4034 51.8239 25.733C51.1951 26.0625 50.4337 26.2273 49.5398 26.2273H46.6136V24.2557H49.142C49.6155 24.2557 50.0057 24.1742 50.3125 24.0114C50.6231 23.8447 50.8542 23.6155 51.0057 23.3239C51.161 23.0284 51.2386 22.6894 51.2386 22.3068C51.2386 21.9205 51.161 21.5833 51.0057 21.2955C50.8542 21.0038 50.6231 20.7784 50.3125 20.6193C50.0019 20.4564 49.608 20.375 49.1307 20.375H47.4716V30H45.0114ZM59.4957 30H55.3707V18.3636H59.5298C60.7003 18.3636 61.7079 18.5966 62.5526 19.0625C63.3973 19.5246 64.0469 20.1894 64.5014 21.0568C64.9598 21.9242 65.1889 22.9621 65.1889 24.1705C65.1889 25.3826 64.9598 26.4242 64.5014 27.2955C64.0469 28.1667 63.3935 28.8352 62.5412 29.3011C61.6927 29.767 60.6776 30 59.4957 30ZM57.831 27.892H59.3935C60.1207 27.892 60.7325 27.7633 61.2287 27.5057C61.7287 27.2443 62.1037 26.8409 62.3537 26.2955C62.6075 25.7462 62.7344 25.0379 62.7344 24.1705C62.7344 23.3106 62.6075 22.608 62.3537 22.0625C62.1037 21.517 61.7306 21.1155 61.2344 20.858C60.7382 20.6004 60.1264 20.4716 59.3991 20.4716H57.831V27.892ZM67.0114 30V18.3636H74.7159V20.392H69.4716V23.1648H74.2045V25.1932H69.4716V30H67.0114ZM80.9673 21.2727V23.0909H75.7116V21.2727H80.9673ZM76.9048 19.1818H79.3253V27.3182C79.3253 27.5417 79.3594 27.7159 79.4276 27.8409C79.4957 27.9621 79.5904 28.0473 79.7116 28.0966C79.8366 28.1458 79.9806 28.1705 80.1435 28.1705C80.2571 28.1705 80.3707 28.161 80.4844 28.142C80.598 28.1193 80.6851 28.1023 80.7457 28.0909L81.1264 29.892C81.0052 29.9299 80.8348 29.9735 80.6151 30.0227C80.3954 30.0758 80.1283 30.108 79.8139 30.1193C79.2306 30.142 78.7192 30.0644 78.2798 29.8864C77.8442 29.7083 77.5052 29.4318 77.2628 29.0568C77.0204 28.6818 76.901 28.2083 76.9048 27.6364V19.1818ZM86.3935 30.1705C85.5109 30.1705 84.7476 29.983 84.1037 29.608C83.4635 29.2292 82.9692 28.7027 82.6207 28.0284C82.2723 27.3504 82.098 26.5644 82.098 25.6705C82.098 24.7689 82.2723 23.9811 82.6207 23.3068C82.9692 22.6288 83.4635 22.1023 84.1037 21.7273C84.7476 21.3485 85.5109 21.1591 86.3935 21.1591C87.276 21.1591 88.0374 21.3485 88.6776 21.7273C89.3215 22.1023 89.8177 22.6288 90.1662 23.3068C90.5147 23.9811 90.6889 24.7689 90.6889 25.6705C90.6889 26.5644 90.5147 27.3504 90.1662 28.0284C89.8177 28.7027 89.3215 29.2292 88.6776 29.608C88.0374 29.983 87.276 30.1705 86.3935 30.1705ZM86.4048 28.2955C86.8063 28.2955 87.1416 28.1818 87.4105 27.9545C87.6795 27.7235 87.8821 27.4091 88.0185 27.0114C88.1586 26.6136 88.2287 26.161 88.2287 25.6534C88.2287 25.1458 88.1586 24.6932 88.0185 24.2955C87.8821 23.8977 87.6795 23.5833 87.4105 23.3523C87.1416 23.1212 86.8063 23.0057 86.4048 23.0057C85.9995 23.0057 85.6586 23.1212 85.3821 23.3523C85.1094 23.5833 84.9029 23.8977 84.7628 24.2955C84.6264 24.6932 84.5582 25.1458 84.5582 25.6534C84.5582 26.161 84.6264 26.6136 84.7628 27.0114C84.9029 27.4091 85.1094 27.7235 85.3821 27.9545C85.6586 28.1818 85.9995 28.2955 86.4048 28.2955ZM96.206 30.1705C95.3234 30.1705 94.5601 29.983 93.9162 29.608C93.276 29.2292 92.7817 28.7027 92.4332 28.0284C92.0848 27.3504 91.9105 26.5644 91.9105 25.6705C91.9105 24.7689 92.0848 23.9811 92.4332 23.3068C92.7817 22.6288 93.276 22.1023 93.9162 21.7273C94.5601 21.3485 95.3234 21.1591 96.206 21.1591C97.0885 21.1591 97.8499 21.3485 98.4901 21.7273C99.134 22.1023 99.6302 22.6288 99.9787 23.3068C100.327 23.9811 100.501 24.7689 100.501 25.6705C100.501 26.5644 100.327 27.3504 99.9787 28.0284C99.6302 28.7027 99.134 29.2292 98.4901 29.608C97.8499 29.983 97.0885 30.1705 96.206 30.1705ZM96.2173 28.2955C96.6188 28.2955 96.9541 28.1818 97.223 27.9545C97.492 27.7235 97.6946 27.4091 97.831 27.0114C97.9711 26.6136 98.0412 26.161 98.0412 25.6534C98.0412 25.1458 97.9711 24.6932 97.831 24.2955C97.6946 23.8977 97.492 23.5833 97.223 23.3523C96.9541 23.1212 96.6188 23.0057 96.2173 23.0057C95.812 23.0057 95.4711 23.1212 95.1946 23.3523C94.9219 23.5833 94.7154 23.8977 94.5753 24.2955C94.4389 24.6932 94.3707 25.1458 94.3707 25.6534C94.3707 26.161 94.4389 26.6136 94.5753 27.0114C94.7154 27.4091 94.9219 27.7235 95.1946 27.9545C95.4711 28.1818 95.812 28.2955 96.2173 28.2955ZM104.496 18.3636V30H102.075V18.3636H104.496ZM106.435 30V21.2727H108.855V30H106.435ZM107.651 20.1477C107.291 20.1477 106.982 20.0284 106.724 19.7898C106.471 19.5473 106.344 19.2576 106.344 18.9205C106.344 18.5871 106.471 18.3011 106.724 18.0625C106.982 17.8201 107.291 17.6989 107.651 17.6989C108.01 17.6989 108.317 17.8201 108.571 18.0625C108.829 18.3011 108.957 18.5871 108.957 18.9205C108.957 19.2576 108.829 19.5473 108.571 19.7898C108.317 20.0284 108.01 20.1477 107.651 20.1477ZM115.487 21.2727V23.0909H110.101V21.2727H115.487ZM111.334 30V20.642C111.334 20.0095 111.457 19.4848 111.703 19.0682C111.953 18.6515 112.294 18.339 112.726 18.1307C113.158 17.9223 113.648 17.8182 114.197 17.8182C114.569 17.8182 114.908 17.8466 115.214 17.9034C115.525 17.9602 115.756 18.0114 115.908 18.0568L115.476 19.875C115.381 19.8447 115.264 19.8163 115.124 19.7898C114.987 19.7633 114.847 19.75 114.703 19.75C114.347 19.75 114.099 19.8333 113.959 20C113.819 20.1629 113.749 20.392 113.749 20.6875V30H111.334ZM118.46 33.2727C118.153 33.2727 117.866 33.2481 117.597 33.1989C117.331 33.1534 117.112 33.0947 116.938 33.0227L117.483 31.2159C117.767 31.303 118.023 31.3504 118.25 31.358C118.481 31.3655 118.68 31.3125 118.847 31.1989C119.017 31.0852 119.155 30.892 119.261 30.6193L119.403 30.25L116.273 21.2727H118.818L120.625 27.6818H120.716L122.54 21.2727H125.102L121.71 30.9432C121.547 31.4129 121.326 31.822 121.045 32.1705C120.769 32.5227 120.419 32.7936 119.994 32.983C119.57 33.1761 119.059 33.2727 118.46 33.2727Z" fill="#202020"/>
<path d="M13.4497 24.5532H11.0439V23.29H13.4497C13.8687 23.29 14.2072 23.2223 14.4653 23.0869C14.7235 22.9515 14.9118 22.7653 15.0303 22.5283C15.153 22.2871 15.2144 22.012 15.2144 21.7031C15.2144 21.4111 15.153 21.1382 15.0303 20.8843C14.9118 20.6261 14.7235 20.4188 14.4653 20.2622C14.2072 20.1056 13.8687 20.0273 13.4497 20.0273H11.5327V28H9.93945V18.7578H13.4497C14.1649 18.7578 14.7721 18.8848 15.2715 19.1387C15.7751 19.3883 16.158 19.7354 16.4204 20.1797C16.6828 20.6198 16.814 21.1234 16.814 21.6904C16.814 22.2871 16.6828 22.7992 16.4204 23.2266C16.158 23.654 15.7751 23.9819 15.2715 24.2104C14.7721 24.439 14.1649 24.5532 13.4497 24.5532ZM20.9272 28H18.9531L18.9658 26.7368H20.9272C21.4985 26.7368 21.9767 26.612 22.3618 26.3623C22.7511 26.1126 23.0431 25.755 23.2378 25.2896C23.4367 24.8241 23.5361 24.2697 23.5361 23.6265V23.125C23.5361 22.6257 23.479 22.1834 23.3647 21.7983C23.2547 21.4132 23.0897 21.0895 22.8696 20.8271C22.6538 20.5648 22.3872 20.3659 22.0698 20.2305C21.7567 20.0951 21.3949 20.0273 20.9844 20.0273H18.915V18.7578H20.9844C21.598 18.7578 22.1587 18.8615 22.6665 19.0688C23.1743 19.272 23.6123 19.5661 23.9805 19.9512C24.3529 20.3363 24.6385 20.7975 24.8374 21.335C25.0363 21.8724 25.1357 22.4733 25.1357 23.1377V23.6265C25.1357 24.2909 25.0363 24.8918 24.8374 25.4292C24.6385 25.9666 24.3529 26.4279 23.9805 26.813C23.6081 27.1938 23.1637 27.488 22.6475 27.6953C22.1354 27.8984 21.562 28 20.9272 28ZM19.8354 18.7578V28H18.2422V18.7578H19.8354ZM28.3286 18.7578V28H26.7354V18.7578H28.3286ZM32.0991 22.8013V24.0645H27.9224V22.8013H32.0991ZM32.626 18.7578V20.0273H27.9224V18.7578H32.626Z" fill="black"/>
<line x1="0.823223" y1="12.0867" x2="8.6014" y2="4.30851" stroke="black" stroke-width="0.5"/>
<line x1="0.58836" y1="16.5939" x2="13.3163" y2="3.86599" stroke="black" stroke-width="0.5"/>
<line x1="1.31004" y1="20.3364" x2="17.5735" y2="4.07292" stroke="black" stroke-width="0.5"/>
</svg>
